<mxfile host="app.diagrams.net" agent="Mozilla/5.0 (Windows NT 10.0; Win64; x64) AppleWebKit/537.36 (KHTML, like Gecko) Chrome/132.0.0.0 Safari/537.36" version="26.0.11">
  <diagram name="Page-1" id="OElesngLrtue7mc0o-rn">
    <mxGraphModel dx="1434" dy="772" grid="1" gridSize="10" guides="1" tooltips="1" connect="1" arrows="1" fold="1" page="1" pageScale="1" pageWidth="850" pageHeight="1100" math="0" shadow="0">
      <root>
        <mxCell id="0" />
        <mxCell id="1" parent="0" />
        <mxCell id="27pCN6FI9YQg7-ReDtxU-5" value="HTTP" style="edgeStyle=orthogonalEdgeStyle;rounded=0;orthogonalLoop=1;jettySize=auto;html=1;exitX=1;exitY=0.5;exitDx=0;exitDy=0;entryX=0;entryY=0.5;entryDx=0;entryDy=0;" parent="1" source="27pCN6FI9YQg7-ReDtxU-2" target="27pCN6FI9YQg7-ReDtxU-3" edge="1">
          <mxGeometry relative="1" as="geometry" />
        </mxCell>
        <mxCell id="27pCN6FI9YQg7-ReDtxU-2" value="User&#39;s Browser" style="rounded=1;whiteSpace=wrap;html=1;fillColor=#d5e8d4;strokeColor=#82b366;" parent="1" vertex="1">
          <mxGeometry x="110" y="130" width="120" height="60" as="geometry" />
        </mxCell>
        <mxCell id="27pCN6FI9YQg7-ReDtxU-8" style="edgeStyle=orthogonalEdgeStyle;rounded=0;orthogonalLoop=1;jettySize=auto;html=1;exitX=0.5;exitY=1;exitDx=0;exitDy=0;entryX=0.5;entryY=0;entryDx=0;entryDy=0;" parent="1" source="27pCN6FI9YQg7-ReDtxU-3" target="27pCN6FI9YQg7-ReDtxU-4" edge="1">
          <mxGeometry relative="1" as="geometry" />
        </mxCell>
        <mxCell id="27pCN6FI9YQg7-ReDtxU-33" value="File System" style="edgeLabel;html=1;align=center;verticalAlign=middle;resizable=0;points=[];" parent="27pCN6FI9YQg7-ReDtxU-8" vertex="1" connectable="0">
          <mxGeometry x="-0.16" y="2" relative="1" as="geometry">
            <mxPoint as="offset" />
          </mxGeometry>
        </mxCell>
        <mxCell id="27pCN6FI9YQg7-ReDtxU-3" value="Web Server&lt;div&gt;(Flask)&lt;/div&gt;" style="rounded=1;whiteSpace=wrap;html=1;fillColor=#d5e8d4;strokeColor=#82b366;" parent="1" vertex="1">
          <mxGeometry x="330" y="130" width="120" height="60" as="geometry" />
        </mxCell>
        <mxCell id="27pCN6FI9YQg7-ReDtxU-29" style="edgeStyle=orthogonalEdgeStyle;rounded=0;orthogonalLoop=1;jettySize=auto;html=1;exitX=0.5;exitY=1;exitDx=0;exitDy=0;entryX=0.5;entryY=0;entryDx=0;entryDy=0;" parent="1" source="27pCN6FI9YQg7-ReDtxU-4" target="27pCN6FI9YQg7-ReDtxU-9" edge="1">
          <mxGeometry relative="1" as="geometry" />
        </mxCell>
        <mxCell id="27pCN6FI9YQg7-ReDtxU-4" value="Login Screen Page&lt;div&gt;(HTML / CSS)&lt;/div&gt;" style="rounded=1;whiteSpace=wrap;html=1;fillColor=#ffe6cc;strokeColor=#d79b00;" parent="1" vertex="1">
          <mxGeometry x="330" y="230" width="120" height="60" as="geometry" />
        </mxCell>
        <mxCell id="27pCN6FI9YQg7-ReDtxU-6" value="Local Database&lt;div&gt;(TinyDB)&lt;/div&gt;" style="shape=cylinder3;whiteSpace=wrap;html=1;boundedLbl=1;backgroundOutline=1;size=15;fillColor=#d5e8d4;strokeColor=#82b366;" parent="1" vertex="1">
          <mxGeometry x="505" y="120" width="90" height="80" as="geometry" />
        </mxCell>
        <mxCell id="27pCN6FI9YQg7-ReDtxU-30" style="edgeStyle=orthogonalEdgeStyle;rounded=0;orthogonalLoop=1;jettySize=auto;html=1;exitX=1;exitY=0.5;exitDx=0;exitDy=0;entryX=0;entryY=0.5;entryDx=0;entryDy=0;" parent="1" source="27pCN6FI9YQg7-ReDtxU-9" target="27pCN6FI9YQg7-ReDtxU-10" edge="1">
          <mxGeometry relative="1" as="geometry" />
        </mxCell>
        <mxCell id="27pCN6FI9YQg7-ReDtxU-9" value="Main Feed Page&lt;div&gt;(HTML/CSS)&lt;/div&gt;" style="rounded=1;whiteSpace=wrap;html=1;fillColor=#ffe6cc;strokeColor=#d79b00;" parent="1" vertex="1">
          <mxGeometry x="330" y="320" width="120" height="60" as="geometry" />
        </mxCell>
        <mxCell id="27pCN6FI9YQg7-ReDtxU-10" value="Betting 1v1 Screen&lt;div&gt;(HTML/CSS)&lt;/div&gt;" style="rounded=1;whiteSpace=wrap;html=1;fillColor=#dae8fc;strokeColor=#6c8ebf;" parent="1" vertex="1">
          <mxGeometry x="490" y="320" width="120" height="60" as="geometry" />
        </mxCell>
        <mxCell id="27pCN6FI9YQg7-ReDtxU-18" value="" style="shape=table;startSize=0;container=1;collapsible=0;childLayout=tableLayout;" parent="1" vertex="1">
          <mxGeometry x="630" y="20" width="190" height="180" as="geometry" />
        </mxCell>
        <mxCell id="27pCN6FI9YQg7-ReDtxU-19" value="" style="shape=tableRow;horizontal=0;startSize=0;swimlaneHead=0;swimlaneBody=0;strokeColor=inherit;top=0;left=0;bottom=0;right=0;collapsible=0;dropTarget=0;fillColor=none;points=[[0,0.5],[1,0.5]];portConstraint=eastwest;" parent="27pCN6FI9YQg7-ReDtxU-18" vertex="1">
          <mxGeometry width="190" height="60" as="geometry" />
        </mxCell>
        <mxCell id="27pCN6FI9YQg7-ReDtxU-20" value="Fully built" style="shape=partialRectangle;html=1;whiteSpace=wrap;connectable=0;strokeColor=inherit;overflow=hidden;fillColor=none;top=0;left=0;bottom=0;right=0;pointerEvents=1;" parent="27pCN6FI9YQg7-ReDtxU-19" vertex="1">
          <mxGeometry width="95" height="60" as="geometry">
            <mxRectangle width="95" height="60" as="alternateBounds" />
          </mxGeometry>
        </mxCell>
        <mxCell id="27pCN6FI9YQg7-ReDtxU-21" value="" style="shape=partialRectangle;html=1;whiteSpace=wrap;connectable=0;strokeColor=#82b366;overflow=hidden;fillColor=#d5e8d4;top=0;left=0;bottom=0;right=0;pointerEvents=1;" parent="27pCN6FI9YQg7-ReDtxU-19" vertex="1">
          <mxGeometry x="95" width="95" height="60" as="geometry">
            <mxRectangle width="95" height="60" as="alternateBounds" />
          </mxGeometry>
        </mxCell>
        <mxCell id="27pCN6FI9YQg7-ReDtxU-22" value="" style="shape=tableRow;horizontal=0;startSize=0;swimlaneHead=0;swimlaneBody=0;strokeColor=inherit;top=0;left=0;bottom=0;right=0;collapsible=0;dropTarget=0;fillColor=none;points=[[0,0.5],[1,0.5]];portConstraint=eastwest;" parent="27pCN6FI9YQg7-ReDtxU-18" vertex="1">
          <mxGeometry y="60" width="190" height="60" as="geometry" />
        </mxCell>
        <mxCell id="27pCN6FI9YQg7-ReDtxU-23" value="Needs adjustement" style="shape=partialRectangle;html=1;whiteSpace=wrap;connectable=0;strokeColor=inherit;overflow=hidden;fillColor=none;top=0;left=0;bottom=0;right=0;pointerEvents=1;" parent="27pCN6FI9YQg7-ReDtxU-22" vertex="1">
          <mxGeometry width="95" height="60" as="geometry">
            <mxRectangle width="95" height="60" as="alternateBounds" />
          </mxGeometry>
        </mxCell>
        <mxCell id="27pCN6FI9YQg7-ReDtxU-24" value="" style="shape=partialRectangle;html=1;whiteSpace=wrap;connectable=0;strokeColor=#d79b00;overflow=hidden;fillColor=#ffe6cc;top=0;left=0;bottom=0;right=0;pointerEvents=1;" parent="27pCN6FI9YQg7-ReDtxU-22" vertex="1">
          <mxGeometry x="95" width="95" height="60" as="geometry">
            <mxRectangle width="95" height="60" as="alternateBounds" />
          </mxGeometry>
        </mxCell>
        <mxCell id="27pCN6FI9YQg7-ReDtxU-25" value="" style="shape=tableRow;horizontal=0;startSize=0;swimlaneHead=0;swimlaneBody=0;strokeColor=inherit;top=0;left=0;bottom=0;right=0;collapsible=0;dropTarget=0;fillColor=none;points=[[0,0.5],[1,0.5]];portConstraint=eastwest;" parent="27pCN6FI9YQg7-ReDtxU-18" vertex="1">
          <mxGeometry y="120" width="190" height="60" as="geometry" />
        </mxCell>
        <mxCell id="27pCN6FI9YQg7-ReDtxU-26" value="Needs to be fully built" style="shape=partialRectangle;html=1;whiteSpace=wrap;connectable=0;strokeColor=inherit;overflow=hidden;fillColor=none;top=0;left=0;bottom=0;right=0;pointerEvents=1;" parent="27pCN6FI9YQg7-ReDtxU-25" vertex="1">
          <mxGeometry width="95" height="60" as="geometry">
            <mxRectangle width="95" height="60" as="alternateBounds" />
          </mxGeometry>
        </mxCell>
        <mxCell id="27pCN6FI9YQg7-ReDtxU-27" value="" style="shape=partialRectangle;html=1;whiteSpace=wrap;connectable=0;strokeColor=#6c8ebf;overflow=hidden;fillColor=#dae8fc;top=0;left=0;bottom=0;right=0;pointerEvents=1;" parent="27pCN6FI9YQg7-ReDtxU-25" vertex="1">
          <mxGeometry x="95" width="95" height="60" as="geometry">
            <mxRectangle width="95" height="60" as="alternateBounds" />
          </mxGeometry>
        </mxCell>
        <mxCell id="27pCN6FI9YQg7-ReDtxU-28" style="edgeStyle=orthogonalEdgeStyle;rounded=0;orthogonalLoop=1;jettySize=auto;html=1;exitX=1;exitY=0.5;exitDx=0;exitDy=0;entryX=0;entryY=0.5;entryDx=0;entryDy=0;entryPerimeter=0;" parent="1" source="27pCN6FI9YQg7-ReDtxU-3" target="27pCN6FI9YQg7-ReDtxU-6" edge="1">
          <mxGeometry relative="1" as="geometry" />
        </mxCell>
        <mxCell id="27pCN6FI9YQg7-ReDtxU-32" value="Python" style="edgeLabel;html=1;align=center;verticalAlign=middle;resizable=0;points=[];" parent="27pCN6FI9YQg7-ReDtxU-28" vertex="1" connectable="0">
          <mxGeometry x="-0.2364" y="1" relative="1" as="geometry">
            <mxPoint as="offset" />
          </mxGeometry>
        </mxCell>
        <mxCell id="eeXwrQVzjeST1IOiqXY9-1" value="Leaderboard&lt;br&gt;(MySQL)" style="shape=cylinder3;whiteSpace=wrap;html=1;boundedLbl=1;backgroundOutline=1;size=15;fillColor=light-dark(#dae8fc, #1f2f1e);strokeColor=#6C8EBF;" vertex="1" parent="1">
          <mxGeometry x="170" y="310" width="90" height="80" as="geometry" />
        </mxCell>
        <mxCell id="eeXwrQVzjeST1IOiqXY9-6" value="" style="endArrow=classic;html=1;rounded=0;entryX=1;entryY=0.5;entryDx=0;entryDy=0;entryPerimeter=0;exitX=0;exitY=0.5;exitDx=0;exitDy=0;" edge="1" parent="1" source="27pCN6FI9YQg7-ReDtxU-9" target="eeXwrQVzjeST1IOiqXY9-1">
          <mxGeometry width="50" height="50" relative="1" as="geometry">
            <mxPoint x="400" y="420" as="sourcePoint" />
            <mxPoint x="450" y="370" as="targetPoint" />
          </mxGeometry>
        </mxCell>
      </root>
    </mxGraphModel>
  </diagram>
</mxfile>
